<svg width="181" height="70" viewBox="0 0 181 70" fill="none" xmlns="http://www.w3.org/2000/svg">
<line x1="181" y1="45.7951" x2="53" y2="45.7951" stroke="#B9B9CA" stroke-width="0.49542"/>
<path d="M57.7656 59.5186C57.7277 59.1825 57.5715 58.9221 57.2969 58.7374C57.0223 58.5504 56.6766 58.4569 56.2599 58.4569C55.9616 58.4569 55.7036 58.5042 55.4858 58.5989C55.268 58.6912 55.0987 58.8191 54.978 58.9824C54.8596 59.1434 54.8004 59.3269 54.8004 59.5328C54.8004 59.7057 54.8407 59.8548 54.9212 59.9803C55.004 60.1058 55.1117 60.2111 55.2443 60.2963C55.3793 60.3792 55.5237 60.449 55.6776 60.5059C55.8314 60.5603 55.9794 60.6053 56.1214 60.6408L56.8317 60.8255C57.0637 60.8823 57.3016 60.9592 57.5455 61.0563C57.7893 61.1533 58.0154 61.2812 58.2237 61.4398C58.4321 61.5984 58.6001 61.7949 58.728 62.0293C58.8582 62.2637 58.9233 62.5442 58.9233 62.8709C58.9233 63.2828 58.8168 63.6486 58.6037 63.9682C58.393 64.2878 58.0864 64.54 57.6839 64.7246C57.2839 64.9093 56.7997 65.0016 56.2315 65.0016C55.687 65.0016 55.2159 64.9152 54.8182 64.7424C54.4205 64.5695 54.1091 64.3245 53.8842 64.0073C53.6593 63.6877 53.535 63.3089 53.5114 62.8709H54.6122C54.6335 63.1337 54.7188 63.3527 54.8679 63.5279C55.0194 63.7007 55.2124 63.8297 55.4467 63.915C55.6835 63.9978 55.9427 64.0392 56.2244 64.0392C56.5346 64.0392 56.8104 63.9907 57.0518 63.8936C57.2957 63.7942 57.4875 63.6569 57.6271 63.4817C57.7668 63.3042 57.8366 63.097 57.8366 62.8603C57.8366 62.6448 57.7751 62.4685 57.652 62.3311C57.5313 62.1938 57.3667 62.0802 57.1584 61.9902C56.9524 61.9003 56.7192 61.821 56.4588 61.7523L55.5994 61.5179C55.017 61.3593 54.5554 61.1261 54.2145 60.8184C53.8759 60.5106 53.7067 60.1034 53.7067 59.5968C53.7067 59.1777 53.8203 58.812 54.0476 58.4995C54.2749 58.187 54.5826 57.9443 54.9709 57.7715C55.3591 57.5963 55.7971 57.5087 56.2848 57.5087C56.7772 57.5087 57.2116 57.5951 57.5881 57.7679C57.9669 57.9408 58.2652 58.1787 58.483 58.4817C58.7008 58.7824 58.8144 59.128 58.8239 59.5186H57.7656ZM62.6955 59.4263V60.2786H59.7161V59.4263H62.6955ZM60.5151 58.1195H61.5769V63.2793C61.5769 63.4853 61.6077 63.6403 61.6692 63.7445C61.7308 63.8463 61.8101 63.9161 61.9071 63.954C62.0066 63.9895 62.1143 64.0073 62.2303 64.0073C62.3155 64.0073 62.3901 64.0014 62.454 63.9895C62.5179 63.9777 62.5676 63.9682 62.6032 63.9611L62.7949 64.8382C62.7334 64.8619 62.6458 64.8856 62.5321 64.9093C62.4185 64.9353 62.2765 64.9495 62.106 64.9519C61.8266 64.9566 61.5662 64.9069 61.3248 64.8027C61.0833 64.6986 60.888 64.5376 60.7388 64.3198C60.5897 64.102 60.5151 63.8285 60.5151 63.4995V58.1195ZM65.4574 65.0016C65.1117 65.0016 64.7992 64.9377 64.5199 64.8098C64.2405 64.6796 64.0192 64.4914 63.8558 64.2452C63.6948 63.999 63.6143 63.6971 63.6143 63.3397C63.6143 63.0319 63.6735 62.7786 63.7919 62.5797C63.9103 62.3809 64.0701 62.2234 64.2713 62.1074C64.4725 61.9914 64.6974 61.9038 64.946 61.8446C65.1946 61.7855 65.4479 61.7405 65.706 61.7097C66.0327 61.6718 66.2978 61.641 66.5014 61.6174C66.705 61.5913 66.853 61.5499 66.9453 61.4931C67.0376 61.4363 67.0838 61.3439 67.0838 61.2161V61.1912C67.0838 60.8811 66.9962 60.6408 66.821 60.4703C66.6482 60.2999 66.3902 60.2147 66.0469 60.2147C65.6894 60.2147 65.4077 60.294 65.2017 60.4526C64.9981 60.6088 64.8572 60.7828 64.7791 60.9746L63.7812 60.7473C63.8996 60.4159 64.0724 60.1484 64.2997 59.9448C64.5294 59.7388 64.7933 59.5897 65.0916 59.4973C65.3899 59.4026 65.7036 59.3553 66.0327 59.3553C66.2505 59.3553 66.4813 59.3813 66.7251 59.4334C66.9714 59.4831 67.201 59.5755 67.4141 59.7104C67.6295 59.8453 67.8059 60.0383 67.9432 60.2892C68.0805 60.5378 68.1491 60.861 68.1491 61.2587V64.8809H67.1122V64.1351H67.0696C67.0009 64.2724 66.898 64.4074 66.7607 64.54C66.6233 64.6725 66.447 64.7826 66.2315 64.8702C66.0161 64.9578 65.758 65.0016 65.4574 65.0016ZM65.6882 64.1493C65.9818 64.1493 66.2327 64.0913 66.4411 63.9753C66.6518 63.8593 66.8116 63.7078 66.9205 63.5208C67.0317 63.3314 67.0874 63.129 67.0874 62.9135V62.2104C67.0495 62.2483 66.9761 62.2838 66.8672 62.3169C66.7607 62.3477 66.6387 62.3749 66.5014 62.3986C66.3641 62.4199 66.2304 62.44 66.1001 62.459C65.9699 62.4756 65.861 62.4898 65.7734 62.5016C65.5675 62.5276 65.3793 62.5714 65.2088 62.633C65.0407 62.6945 64.9058 62.7833 64.804 62.8993C64.7045 63.013 64.6548 63.1645 64.6548 63.3539C64.6548 63.6167 64.7519 63.8155 64.946 63.9505C65.1402 64.083 65.3875 64.1493 65.6882 64.1493ZM69.5634 64.8809V59.4263H70.5826V60.3141H70.65C70.7637 60.0134 70.9495 59.7791 71.2076 59.611C71.4656 59.4405 71.7746 59.3553 72.1344 59.3553C72.499 59.3553 72.8044 59.4405 73.0506 59.611C73.2992 59.7814 73.4827 60.0158 73.601 60.3141H73.6578C73.7881 60.0229 73.9952 59.7909 74.2793 59.6181C74.5634 59.4429 74.9019 59.3553 75.2949 59.3553C75.7897 59.3553 76.1934 59.5104 76.5059 59.8205C76.8207 60.1306 76.9782 60.5982 76.9782 61.2232V64.8809H75.9164V61.3226C75.9164 60.9533 75.8158 60.6858 75.6145 60.5201C75.4133 60.3543 75.173 60.2715 74.8936 60.2715C74.548 60.2715 74.2793 60.378 74.0875 60.5911C73.8958 60.8018 73.7999 61.0729 73.7999 61.4043V64.8809H72.7417V61.2551C72.7417 60.9592 72.6493 60.7213 72.4647 60.5414C72.28 60.3614 72.0397 60.2715 71.7438 60.2715C71.5426 60.2715 71.3567 60.3248 71.1863 60.4313C71.0182 60.5355 70.882 60.681 70.7779 60.8681C70.6761 61.0551 70.6252 61.2717 70.6252 61.5179V64.8809H69.5634ZM78.4013 66.9263V59.4263H79.4382V60.3105H79.527C79.5885 60.1969 79.6773 60.0655 79.7933 59.9164C79.9093 59.7672 80.0703 59.637 80.2763 59.5257C80.4822 59.4121 80.7545 59.3553 81.093 59.3553C81.5334 59.3553 81.9264 59.4666 82.272 59.6891C82.6177 59.9116 82.8887 60.2324 83.0852 60.6515C83.2841 61.0705 83.3835 61.5748 83.3835 62.1642C83.3835 62.7537 83.2853 63.2592 83.0888 63.6806C82.8923 64.0996 82.6224 64.4228 82.2791 64.65C81.9358 64.8749 81.544 64.9874 81.1037 64.9874C80.7723 64.9874 80.5012 64.9318 80.2905 64.8205C80.0821 64.7092 79.9188 64.579 79.8004 64.4299C79.6821 64.2807 79.5909 64.1481 79.527 64.0321H79.4631V66.9263H78.4013ZM79.4418 62.1536C79.4418 62.5371 79.4974 62.8733 79.6087 63.1621C79.7199 63.4509 79.8809 63.677 80.0916 63.8404C80.3023 64.0014 80.5604 64.0819 80.8658 64.0819C81.183 64.0819 81.4482 63.9978 81.6612 63.8297C81.8743 63.6593 82.0353 63.4284 82.1442 63.1373C82.2554 62.8461 82.3111 62.5182 82.3111 62.1536C82.3111 61.7937 82.2566 61.4706 82.1477 61.1841C82.0412 60.8977 81.8802 60.6716 81.6648 60.5059C81.4517 60.3401 81.1854 60.2573 80.8658 60.2573C80.558 60.2573 80.2976 60.3366 80.0845 60.4952C79.8738 60.6538 79.714 60.8752 79.6051 61.1593C79.4962 61.4434 79.4418 61.7748 79.4418 62.1536Z" fill="#777777"/>
</svg>
